<svg id="Layer_1" data-name="Layer 1" xmlns="http://www.w3.org/2000/svg" viewBox="0 0 279.09 85.09"><defs><style>.cls-1{fill:#fff;}</style></defs><title>abc emporio logow</title><path class="cls-1" d="M251,27.86h0a18.38,18.38,0,0,1,23.43,0,15.84,15.84,0,0,1,0,22.26,18.38,18.38,0,0,1-23.43,0,15.84,15.84,0,0,1,0-22.26m2.34,21.32a13.3,13.3,0,0,0,18.75,0,16.22,16.22,0,0,0,0-20.39,13.3,13.3,0,0,0-18.75,0,16.22,16.22,0,0,0,0,20.39" transform="translate(0.04 0.02)"/><path class="cls-1" d="M236.79,53.32a2.33,2.33,0,0,0,1.87-.82,2.77,2.77,0,0,0,.82-1.87V27.16a2.77,2.77,0,0,0-.82-1.87,2.24,2.24,0,0,0-1.87-.7h-.59v-.47h9.26v.47h-.59a2.66,2.66,0,0,0-1.87.7,2.77,2.77,0,0,0-.82,1.87V50.6a2.33,2.33,0,0,0,.82,1.87,2.77,2.77,0,0,0,1.87.82h.59v.47H236.2v-.44Z" transform="translate(0.04 0.02)"/><path class="cls-1" d="M217,25.5H214.3V50.71a2.33,2.33,0,0,0,.82,1.87,2.77,2.77,0,0,0,1.87.82h.47v.35H208.2v-.43h.59a2.66,2.66,0,0,0,1.87-.7,2.77,2.77,0,0,0,.82-1.87V27.32a2.81,2.81,0,0,0-2.69-2.69h-.59v-.47h11.37a8.45,8.45,0,0,1,6.09,2.11,7.51,7.51,0,0,1,2.23,5.51,9,9,0,0,1-2.11,5.86,6.39,6.39,0,0,1-5,2.46,7.52,7.52,0,0,1,1.52,1.17A20.36,20.36,0,0,1,223.82,43c2.46,3.52,4,5.62,4.69,6.44A11.28,11.28,0,0,0,230,51.06a6.44,6.44,0,0,0,1,.82l1,.7a6.86,6.86,0,0,0,2.58.59v.59H232.2a8.4,8.4,0,0,1-3.4-.7,15,15,0,0,1-2.34-1.29c-.47-.47-.94-.82-1.41-1.29s-1.41-1.87-3.16-4.34-2.69-3.87-3-4.22a7.58,7.58,0,0,0-.94-1,3.63,3.63,0,0,0-2.75-1.38V39h2.34c3.52-.12,5.62-1.52,6.56-4.45a6.91,6.91,0,0,0,.23-1.64V32A7.17,7.17,0,0,0,223,27.49a4.89,4.89,0,0,0-3.73-1.9h-2.58" transform="translate(0.04 0.02)"/><path class="cls-1" d="M179.3,27.86h0a18.38,18.38,0,0,1,23.43,0,15.84,15.84,0,0,1,0,22.26,18.38,18.38,0,0,1-23.43,0,15.84,15.84,0,0,1,0-22.26m2.34,21.32a13.3,13.3,0,0,0,18.75,0,16.22,16.22,0,0,0,0-20.39,13.3,13.3,0,0,0-18.75,0,16.22,16.22,0,0,0,0,20.39" transform="translate(0.04 0.02)"/><path class="cls-1" d="M173,32.32a7.38,7.38,0,0,1-.82,3.52,8,8,0,0,1-4.9,4.21,13.62,13.62,0,0,1-2.11.47,12.25,12.25,0,0,1-4.57-.94v-.47a8.17,8.17,0,0,0,5.74-.7,6.48,6.48,0,0,0,3.14-3.91,6.91,6.91,0,0,0,.23-1.64v-.94a7.49,7.49,0,0,0-1.52-4.69,5.1,5.1,0,0,0-4.1-1.76H159.3V50.71A2.81,2.81,0,0,0,162,53.4h.59v.47h-9.28V53.4h.59a2.33,2.33,0,0,0,1.87-.82,2.77,2.77,0,0,0,.82-1.87V27a2.62,2.62,0,0,0-.94-1.76,2.58,2.58,0,0,0-1.76-.7h-.47v-.47h11a8.94,8.94,0,0,1,6.33,2.23,8.11,8.11,0,0,1,2.23,6" transform="translate(0.04 0.02)"/><path class="cls-1" d="M150.87,53.32h.7v.47h-9.14v-.35H143a1.63,1.63,0,0,0,1.17-.59,1.76,1.76,0,0,0,.47-1.29l-1.87-21.24L134,50.12a14.46,14.46,0,0,0-1.41,4.38h-.47L121.3,31,119.43,51.6a1.76,1.76,0,0,0,.47,1.29,1.44,1.44,0,0,0,1.17.59h.59v.23h-8.2v-.44h.7a3.51,3.51,0,0,0,2.11-.7,3,3,0,0,0,1-2l3.21-27.09H121L132.72,49l11.47-25.43h.35l3.25,27a3.33,3.33,0,0,0,1,2,3.18,3.18,0,0,0,2,.7" transform="translate(0.04 0.02)"/><path class="cls-1" d="M94.4,53.32a2.33,2.33,0,0,0,1.9-.79,2.77,2.77,0,0,0,.82-1.87V27a2.11,2.11,0,0,0-.82-1.76,2.66,2.66,0,0,0-1.87-.7H94v-.47h12.3a22.75,22.75,0,0,0,2.81-.23,15.07,15.07,0,0,0,2.23-.47v5.27h-.51V28a2.45,2.45,0,0,0-2.37-2.48H99.79v13H107a1.94,1.94,0,0,0,1.41-.59,2.23,2.23,0,0,0,.59-1.52V35.8h.47v6.7H109v-.7a1.94,1.94,0,0,0-.64-1.4,2.16,2.16,0,0,0-1.41-.59H99.74V52.5h6a7.06,7.06,0,0,0,4.8-1.41,9.3,9.3,0,0,0,2.69-4.1h.47l-2.34,6.8H93.79v-.47Z" transform="translate(0.04 0.02)"/><path class="cls-1" d="M69.91,54.32A15,15,0,0,1,59,50.1,15.35,15.35,0,0,1,70,23.62a16.82,16.82,0,0,1,10,2.93l.82,6h-.35a9.68,9.68,0,0,0-3.75-5.62,12.37,12.37,0,0,0-6.68-2,10.85,10.85,0,0,0-8.79,3.87A14.46,14.46,0,0,0,58,39a14.82,14.82,0,0,0,3.28,10.19,11.08,11.08,0,0,0,8.67,4,12,12,0,0,0,7.85-2.58c2.23-1.87,3.63-4.92,4.1-9h.35l-.47,6.56c-2.58,4.1-6.44,6.21-11.83,6.21" transform="translate(0.04 0.02)"/><path class="cls-1" d="M42.72,53.76H32.41v-.44h.47a2.66,2.66,0,0,0,1.87-.7,2.77,2.77,0,0,0,.82-1.87V27.32a2.77,2.77,0,0,0-.82-1.87,2.24,2.24,0,0,0-1.87-.7h-.47v-.47h8.44a11.47,11.47,0,0,1,6.8,1.87A6.18,6.18,0,0,1,50,31.31a6.54,6.54,0,0,1-4.69,6.44,8.53,8.53,0,0,1,5.27,2.69,8.91,8.91,0,0,1,2,5.62A7.07,7.07,0,0,1,50,51.54a10.33,10.33,0,0,1-7.26,2.23m-4.34-1.52h4.22a6.68,6.68,0,0,0,5-1.76,6.42,6.42,0,0,0,1.76-4.92,9.47,9.47,0,0,0-.58-3.25,6.87,6.87,0,0,0-1.48-2.2c-1.64-1.41-4.1-2-7.38-2h0v-.35c3.75,0,6-1.41,6.68-4.1a6.49,6.49,0,0,0,.23-2.11,5.73,5.73,0,0,0-1.64-4.45,6.55,6.55,0,0,0-4.57-1.52H38.39Z" transform="translate(0.04 0.02)"/><path class="cls-1" d="M30.54,53.32h.35v.47H21.4v-.47h.39a1.68,1.68,0,0,0,1.29-.59,2.11,2.11,0,0,0,.47-1,3.24,3.24,0,0,0-.12-1l-2.69-7.15H9.34L6.53,50.84a3.24,3.24,0,0,0-.12,1,1.74,1.74,0,0,0,.47,1,1.88,1.88,0,0,0,1.29.59h.35v.35H0v-.46H.34a3.78,3.78,0,0,0,2.11-.7,4.58,4.58,0,0,0,1.64-2L13.58,28a14.72,14.72,0,0,0,1.52-4.34h.35L26.71,50.75a4.58,4.58,0,0,0,1.64,2,4.85,4.85,0,0,0,2.23.59m-20.86-11H20.15l-5-13.59Z" transform="translate(0.04 0.02)"/><path class="cls-1" d="M141.5,13.1h0l-.12-.12a.43.43,0,0,1,.12.35v.35c0,.12-.12.23-.23.35s-.35.12-.47.23-.23.12-.23.35V15h-.35v-.35c0-.12-.12-.23-.23-.35a.89.89,0,0,1-.47-.23c-.12-.12-.23-.23-.23-.35v-.36c0-.12.12-.23.12-.35l-.12.12a7,7,0,0,1-4.1,1.64c-.12,0-.35-.12-.47-.12a1.17,1.17,0,0,1-.47.59h12.42a1.17,1.17,0,0,1-.47-.59.7.7,0,0,1-.47.12c-1.17.23-3.16-.82-4.22-1.64m-7.85-1.17-1.29-.7.47-1.64,1.52.82-.47,1.64h0l.12.12a3.06,3.06,0,0,0,2.29,1.17,2,2,0,0,0,1.52-.82,4.62,4.62,0,0,0,.7-1.76H138a.61.61,0,0,1-.39-1.14h1a2,2,0,0,0-.82-1.52l-.7-.35a1.49,1.49,0,0,0-.7.12,1.44,1.44,0,0,0-.61,1.1V9.1L135.6,9a1.6,1.6,0,0,1-.23-2.11l.12-.12c0-.12.12-.12.23-.23a2.08,2.08,0,0,1,1.17-.47,3,3,0,0,1,2.23,1.76,3.24,3.24,0,0,1,.35,1.52h.7a4.17,4.17,0,0,0-.82-2.81,3.17,3.17,0,0,0-2-1.17H137l.23-.12,1.17-.94.12-.12v.3c.12.23.23.35.47.35s.35,0,.47-.12l.12-.12a1.06,1.06,0,0,0-.28-1.11L139,3.4l.12-.12A4.62,4.62,0,0,0,140.24.35V0h.35V.47a4.62,4.62,0,0,0,1.17,2.93l.12.12h-.09a1,1,0,0,0-.35.59.72.72,0,0,0,.12.82c.12.12.12.12.23.12H142c.23,0,.35-.23.47-.35V4.32l.12.12,1.18.88.23.12h-.35a3.17,3.17,0,0,0-2,1.17,4.67,4.67,0,0,0-.83,2.84h.7a3.61,3.61,0,0,1,.35-1.52,1.82,1.82,0,0,1,.7-.94,2.45,2.45,0,0,1,1.52-.82,1.5,1.5,0,0,1,1.17.47c.12,0,.12.12.23.23a1.49,1.49,0,0,1,0,2.11h0l-.12.12-.23.12V8.87a1,1,0,0,0-.59-1.17,1.49,1.49,0,0,0-.7-.12,1,1,0,0,0-.7.35,2,2,0,0,0-.83,1.52h.45a.61.61,0,0,1,.39,1.14h-1a4.62,4.62,0,0,0,.7,1.76,2,2,0,0,0,1.52.82A3.06,3.06,0,0,0,146.76,12l.12-.12h0l-.49-1.56,1.52-.82.47,1.64-1.29.7v.23a2.15,2.15,0,0,0,.7,2,2.62,2.62,0,0,0,2.46.23c.23-.12.35-.12.59-.23s.47-.35.7-.47a.94.94,0,0,0,.35-1,.11.11,0,0,0-.1-.12h0a2.56,2.56,0,0,0-.59-.35,2.29,2.29,0,0,0-.82.12,1.17,1.17,0,0,0-.59.47l-.23.35v-.52a1.14,1.14,0,0,1,.94-1.17.89.89,0,0,1-.23-.47v-.47a1.49,1.49,0,0,0-.12-.7L150,9.6l.12-.12.12.12a1.67,1.67,0,0,0,.7.23.94.94,0,0,1,1,.35c.12.12.12.12.12.23a1.11,1.11,0,0,1,1.17-.47h.12a1.35,1.35,0,0,0-.7,1.05,1.06,1.06,0,0,0,.12.59.64.64,0,0,0,.59.35.78.78,0,0,0,.88-.4,1.74,1.74,0,0,0,0-1.52l-.12-.35.23.23a2.06,2.06,0,0,1,.59.47c.12.12.23.23.23.35.12-.12.23-.12.35-.23a1.51,1.51,0,0,1,1.41.12,2.21,2.21,0,0,0,.94.23H158v.23H158a14.1,14.1,0,0,0-8.08,5l-.35.35.12-.47c.12-.23.23-.59.35-.82l.12-.12a5.07,5.07,0,0,0-.59.12,2.62,2.62,0,0,1-2-.7A2.16,2.16,0,0,1,147,13a2.91,2.91,0,0,1-2.34.82,2.62,2.62,0,0,1-1.76-.94,4.34,4.34,0,0,1-.94-2.11h-.47a4.77,4.77,0,0,0,1.76,2.93h.14a3,3,0,0,0,3.28.12l.12-.12V14a2,2,0,0,0,.7,1.17,2.21,2.21,0,0,0,.94.23h1.43l-.12.23-.23.47v.12H131.66v-.12l-.23-.47-.12-.23h1.41a2.21,2.21,0,0,0,.94-.23,1.55,1.55,0,0,0,.7-1.17v-.23l.12.12c2.34,1.76,4.69-.94,5.16-3H139A4.88,4.88,0,0,1,138,13a2.22,2.22,0,0,1-1.76.94,3.38,3.38,0,0,1-2.34-.82,1.94,1.94,0,0,1-.59,1.41,3.18,3.18,0,0,1-2,.7.88.88,0,0,1-.59-.12l.12.12a5.71,5.71,0,0,1,.35.82l.12.47-.35-.35a14.48,14.48,0,0,0-8.08-5h-.09v-.23h.12a2.76,2.76,0,0,0,.94-.23,2,2,0,0,1,1.41-.12c.12,0,.23.12.35.23,0-.12.12-.23.23-.35a2.56,2.56,0,0,1,.59-.47l.23-.23-.12.35a3.34,3.34,0,0,0,0,1.52.93.93,0,0,0,.94.59.64.64,0,0,0,.59-.35.88.88,0,0,0,.12-.59,1.71,1.71,0,0,0-.7-1.05L127.1,10h.47a1.11,1.11,0,0,1,1.17.47c0-.12.12-.12.12-.23a1.64,1.64,0,0,1,1-.35.86.86,0,0,0,.7-.23l.12-.12.12.12-.12.12a.36.36,0,0,0-.12.23v.94a.61.61,0,0,1-.23.47,1.42,1.42,0,0,1,.91,1.06v.47l-.23-.35c0-.12-.12-.12-.23-.23a.61.61,0,0,0-.47-.23,1.74,1.74,0,0,0-.82-.12.64.64,0,0,0-.59.35l-.12.12v.35a2,2,0,0,0,1,1.29c.23.12.35.12.59.23a2.62,2.62,0,0,0,2.46-.23,2.15,2.15,0,0,0,.7-2Z" transform="translate(0.04 0.02)"/><path class="cls-1" d="M147.79,16.62h0l.47.59-.47.59-.47-.59Zm-1.87,0h0l.47.59-.47.59-.47-.59Zm-1.87,0h0l.47.59-.47.59-.47-.59Zm-1.76,0h0l.47.59-.47.59-.47-.59Zm-1.87,0h0l.47.59-.47.59-.47-.59Zm-1.87,0h0l.47.59-.47.59-.47-.59Zm-1.87,0h0l.47.59-.47.59-.47-.59Zm-1.87,0h0l.47.59-.47.59-.47-.59Zm-1.76,0h0l.47.59-.47.59-.47-.59Zm-1.17-.35A4.47,4.47,0,0,1,132,18h16.87a8.87,8.87,0,0,1,.12-1.76Z" transform="translate(0.04 0.02)"/><path class="cls-1" d="M46.59,16.5h0c0-.23,0-.35-.12-.47a.55.55,0,0,0-.7.12c-.12.12-.23.35-.12.47.12.35.47.7.82.59h79.68c.12.35.23.59.59.7a.9.9,0,0,0,1-.23.94.94,0,0,0,.35-1,1.11,1.11,0,0,0-1-.94H91.59a.88.88,0,0,0-.82.59v.22Z" transform="translate(0.04 0.02)"/><path class="cls-1" d="M234.18,16.5h0c0-.23,0-.35.12-.47a.55.55,0,0,1,.7.12.7.7,0,0,1,.12.47c-.12.35-.47.7-.82.59H154.74c-.12.35-.23.59-.59.7a.9.9,0,0,1-1-.23.94.94,0,0,1-.35-1,1.11,1.11,0,0,1,1-.94h35.39a.88.88,0,0,1,.82.59v.22Z" transform="translate(0.04 0.02)"/><path class="cls-1" d="M140,64h-.19c0,.23-.12.47-.12.7a1.62,1.62,0,0,1-.35.47,1.08,1.08,0,0,1-1.41.23h0l-.12-.12a.66.66,0,0,1-.07-.93l.07-.07.12-.12.23-.12v.23a.61.61,0,0,0,.23.47.52.52,0,0,0,.59-.12.64.64,0,0,0,.35-.59h-.12a.35.35,0,1,1,0-.7h.15V63h0v-.1h0a1.36,1.36,0,0,0-.59-.82l-.7-.59.82.35a1.62,1.62,0,0,1,.47.35,2.36,2.36,0,0,1,.47.94H140a2,2,0,0,0-.7-1.17l-.47-.47.59.23c.12,0,.23.12.47.23V61.7c0-.12.12-.12.12-.23s.12-.12.23-.12a.11.11,0,0,0,.12-.12V61h.23v.23a.11.11,0,0,0,.1.12h0c.12,0,.12.12.23.12s.12.12.12.23V62c.12-.12.23-.12.47-.23l.59-.23-.47.47a3.12,3.12,0,0,0-.7,1.17H141a2.36,2.36,0,0,1,.47-.94c.12-.12.35-.23.47-.35l.82-.35-.7.59a2.1,2.1,0,0,0-.59.82v0h0v.23h.12a.35.35,0,1,1,0,.7h-.12a.64.64,0,0,0,.35.59.52.52,0,0,0,.59.12.89.89,0,0,0,.23-.47V64l.23.12A.66.66,0,0,1,143,65l-.07.09a.11.11,0,0,1-.1.12h0l-.12.12a.9.9,0,0,1-.59.23,1.43,1.43,0,0,1-1-.94A1.49,1.49,0,0,1,141,64h-.23a2,2,0,0,0,.35,1.17,2.55,2.55,0,0,0,.94.59h.29l-.23.12-.59.47-.12.12v-.23l-.12-.12H141c-.12.23,0,.35.12.47l.12.12-.12.12c-.35.23-.47.94-.59,1.41v.23h-.24v-.23c-.12-.47-.23-1.17-.59-1.41l-.12-.12.12-.12c.12-.12.12-.12.12-.23a.22.22,0,0,0,0-.31h-.23l-.12.12v.19l-.12-.12-.59-.47-.23-.12H139a1.19,1.19,0,0,0,.94-.59,2.26,2.26,0,0,0,.35-1.17" transform="translate(0.04 0.02)"/><path class="cls-1" d="M112.3,63.32h23.08c.12.35.23.59.59.7a.9.9,0,0,0,1-.23.94.94,0,0,0,.35-1,1.25,1.25,0,0,0-1-.94h-90a.88.88,0,0,0-.82.59.7.7,0,0,0,.12.47c.12.23.47.23.7.12a.43.43,0,0,0,.12-.35V62.5H100.1v.23c.12.35.47.7.82.59Z" transform="translate(0.04 0.02)"/><path class="cls-1" d="M145.37,63.32c-.12.35-.23.59-.59.7a.9.9,0,0,1-1-.23.94.94,0,0,1-.35-1,1.25,1.25,0,0,1,1-.94h90a.88.88,0,0,1,.82.59.7.7,0,0,1-.12.47c-.12.23-.47.23-.7.12a.43.43,0,0,1-.12-.35V62.5H180.63v.23c-.12.35-.47.7-.82.59Z" transform="translate(0.04 0.02)"/><path class="cls-1" d="M18.67,77.89H16.11V85H14.7V77.89H12.16V76.74h6.51Z" transform="translate(0.04 0.02)"/><path class="cls-1" d="M27.08,85H25.65V81.32H22V85h-1.4V76.75H22v3.42h3.7V76.75h1.42Z" transform="translate(0.04 0.02)"/><path class="cls-1" d="M34.37,81.32H31v2.51h4V85H29.57V76.77H34.9v1.15H31v2.27h3.37Z" transform="translate(0.04 0.02)"/><path class="cls-1" d="M47.14,81.06a5,5,0,0,1-.42,2.12,3.15,3.15,0,0,1-1.19,1.4,3.5,3.5,0,0,1-3.56,0,3.2,3.2,0,0,1-1.21-1.39,4.87,4.87,0,0,1-.46-2.08v-.46a5,5,0,0,1,.45-2.15A3.2,3.2,0,0,1,42,77.09a3.5,3.5,0,0,1,3.56,0,3.16,3.16,0,0,1,1.2,1.41,5,5,0,0,1,.43,2.11Zm-1.43-.43a3.59,3.59,0,0,0-.51-2.13,1.82,1.82,0,0,0-2.9,0,3.52,3.52,0,0,0-.53,2V81a3.56,3.56,0,0,0,.53,2.18,1.7,1.7,0,0,0,1.46.74,1.68,1.68,0,0,0,1.46-.72,3.64,3.64,0,0,0,.51-2.11Z" transform="translate(0.04 0.02)"/><path class="cls-1" d="M52.38,81.8H50.79V85H49.37V76.74H52.3a3.36,3.36,0,0,1,2.19.64,2.26,2.26,0,0,1,.77,1.85,2.31,2.31,0,0,1-.4,1.38,2.53,2.53,0,0,1-1.11.85l1.84,3.42V85H54Zm-1.59-1.15H52.3a1.63,1.63,0,0,0,1.13-.36,1.27,1.27,0,0,0,.41-1,1.35,1.35,0,0,0-.37-1,1.59,1.59,0,0,0-1.17-.4H50.79Z" transform="translate(0.04 0.02)"/><path class="cls-1" d="M58.89,85H57.47V76.74h1.42Z" transform="translate(0.04 0.02)"/><path class="cls-1" d="M67.74,83.89a2.73,2.73,0,0,1-1.23.88,5,5,0,0,1-1.79.3,3.53,3.53,0,0,1-1.83-.47,3.12,3.12,0,0,1-1.23-1.34,4.68,4.68,0,0,1-.45-2v-.64a4.35,4.35,0,0,1,.89-2.91,3.09,3.09,0,0,1,2.49-1,3.27,3.27,0,0,1,2.18.68,2.93,2.93,0,0,1,1,2H66.3a1.57,1.57,0,0,0-1.65-1.49h-.07a1.69,1.69,0,0,0-1.46.69,3.5,3.5,0,0,0-.52,2v.63a3.33,3.33,0,0,0,.56,2.06,1.85,1.85,0,0,0,1.56.73,2.06,2.06,0,0,0,1.58-.6v-1.6H64.63V80.73h3.11Z" transform="translate(0.04 0.02)"/><path class="cls-1" d="M71.62,85H70.2V76.74h1.42Z" transform="translate(0.04 0.02)"/><path class="cls-1" d="M80.69,85H79.3l-3.66-5.82V85H74.18V76.74h1.43l3.69,5.85V76.74h1.42Z" transform="translate(0.04 0.02)"/><path class="cls-1" d="M87.88,83H84.7L84,85H82.55l3.1-8.21H87L90,85H88.55ZM85.1,81.89h2.38L86.3,78.5Z" transform="translate(0.04 0.02)"/><path class="cls-1" d="M93.21,83.8H97V85H91.79V76.74h1.43Z" transform="translate(0.04 0.02)"/><path class="cls-1" d="M103.13,82.84a1,1,0,0,0-.38-.83,4.59,4.59,0,0,0-1.37-.59,6.63,6.63,0,0,1-1.58-.67,2.11,2.11,0,0,1-1.12-1.84,2,2,0,0,1,.81-1.64,3.28,3.28,0,0,1,2.1-.64,3.55,3.55,0,0,1,1.53.32,2.51,2.51,0,0,1,1,.9,2.31,2.31,0,0,1,.38,1.29h-1.42a1.27,1.27,0,0,0-.4-1,1.67,1.67,0,0,0-1.15-.36,1.74,1.74,0,0,0-1.09.3,1,1,0,0,0-.39.83.9.9,0,0,0,.42.75,4.82,4.82,0,0,0,1.38.58,6.31,6.31,0,0,1,1.54.65,2.45,2.45,0,0,1,.85.83,2.17,2.17,0,0,1,.27,1.1,2,2,0,0,1-.79,1.63,3.41,3.41,0,0,1-2.13.61,4,4,0,0,1-1.64-.33,2.75,2.75,0,0,1-1.16-.91,2.27,2.27,0,0,1-.41-1.35h1.48a1.33,1.33,0,0,0,.46,1.08,2,2,0,0,0,1.33.38,1.76,1.76,0,0,0,1.12-.3A1,1,0,0,0,103.13,82.84Z" transform="translate(0.04 0.02)"/><path class="cls-1" d="M127,77.89H124.4V85H123V77.89h-2.54V76.74H127Z" transform="translate(0.04 0.02)"/><path class="cls-1" d="M135.3,85h-1.42V81.32h-3.67V85h-1.42V76.75h1.43v3.42h3.67V76.75h1.42Z" transform="translate(0.04 0.02)"/><path class="cls-1" d="M142.63,81.32H139.3v2.51h3.94V85h-5.37V76.77h5.33v1.15h-3.9v2.27h3.37Z" transform="translate(0.04 0.02)"/><path class="cls-1" d="M148.85,85V76.74h2.81a3.43,3.43,0,0,1,2.13.58,2,2,0,0,1,.73,1.66,1.77,1.77,0,0,1-.3,1,2,2,0,0,1-.89.7,1.81,1.81,0,0,1,1,.68,2,2,0,0,1,.36,1.2,2.19,2.19,0,0,1-.74,1.78,3.22,3.22,0,0,1-2.12.62Zm1.45-4.75h1.4a1.62,1.62,0,0,0,1-.3,1.22,1.22,0,0,0,0-1.73h0a1.75,1.75,0,0,0-1.08-.27h-1.34Zm0,1v2.6h1.58a1.54,1.54,0,0,0,1-.33,1.3,1.3,0,0,0-.93-2.22Z" transform="translate(0.04 0.02)"/><path class="cls-1" d="M161.74,81.32h-3.37v2.51h3.93V85H157V76.77h5.37v1.15h-3.9v2.27h3.39Z" transform="translate(0.04 0.02)"/><path class="cls-1" d="M168.57,82.84a1,1,0,0,0-.38-.83,4.59,4.59,0,0,0-1.37-.59,6.63,6.63,0,0,1-1.58-.67,2.11,2.11,0,0,1-1.12-1.84,2,2,0,0,1,.81-1.64,3.28,3.28,0,0,1,2.1-.64,3.55,3.55,0,0,1,1.53.32,2.51,2.51,0,0,1,1,.9,2.31,2.31,0,0,1,.38,1.29h-1.42a1.27,1.27,0,0,0-.4-1,1.67,1.67,0,0,0-1.15-.36,1.74,1.74,0,0,0-1.09.3,1,1,0,0,0-.39.83.9.9,0,0,0,.42.75,4.82,4.82,0,0,0,1.38.58,6.31,6.31,0,0,1,1.54.65,2.45,2.45,0,0,1,.85.83,2.17,2.17,0,0,1,.27,1.1,2,2,0,0,1-.79,1.63,3.41,3.41,0,0,1-2.13.61,4,4,0,0,1-1.64-.33,2.75,2.75,0,0,1-1.16-.91,2.27,2.27,0,0,1-.41-1.35h1.43a1.33,1.33,0,0,0,.46,1.08,2,2,0,0,0,1.33.38,1.76,1.76,0,0,0,1.12-.3A1,1,0,0,0,168.57,82.84Z" transform="translate(0.04 0.02)"/><path class="cls-1" d="M178,77.89H175.4V85H174V77.89h-2.54V76.74H178Z" transform="translate(0.04 0.02)"/><path class="cls-1" d="M199.86,77.89H197.3V85h-1.42V77.89h-2.54V76.74h6.51Z" transform="translate(0.04 0.02)"/><path class="cls-1" d="M208.3,85h-1.42V81.32h-3.67V85h-1.42V76.75h1.43v3.42h3.67V76.75h1.42Z" transform="translate(0.04 0.02)"/><path class="cls-1" d="M215.56,81.32h-3.37v2.51h3.94V85h-5.34V76.77h5.33v1.15h-3.9v2.27h3.37Z" transform="translate(0.04 0.02)"/><path class="cls-1" d="M223.21,83.8H227V85h-5.15V76.74h1.43Z" transform="translate(0.04 0.02)"/><path class="cls-1" d="M233.54,83h-3.18L229.69,85h-1.48l3.1-8.21h1.28L235.7,85h-1.49Zm-2.75-1.15h2.38L232,78.5Z" transform="translate(0.04 0.02)"/><path class="cls-1" d="M242.69,77.89h-2.56V85h-1.42V77.89h-2.54V76.74h6.51Z" transform="translate(0.04 0.02)"/><path class="cls-1" d="M249.37,81.32H246v2.51h4V85h-5.37V76.77h5.33v1.15h-4v2.27h3.37Z" transform="translate(0.04 0.02)"/><path class="cls-1" d="M256.2,82.84a1,1,0,0,0-.38-.83,4.59,4.59,0,0,0-1.37-.59,6.63,6.63,0,0,1-1.58-.67,2.11,2.11,0,0,1-1.12-1.84,2,2,0,0,1,.81-1.64,3.28,3.28,0,0,1,2.1-.64,3.55,3.55,0,0,1,1.53.32,2.51,2.51,0,0,1,1,.9,2.31,2.31,0,0,1,.38,1.29h-1.42a1.27,1.27,0,0,0-.4-1,1.67,1.67,0,0,0-1.15-.36,1.74,1.74,0,0,0-1.09.3,1,1,0,0,0-.39.83.9.9,0,0,0,.42.75,4.82,4.82,0,0,0,1.38.58,6.31,6.31,0,0,1,1.54.65,2.45,2.45,0,0,1,.85.83,2.17,2.17,0,0,1,.27,1.1,2,2,0,0,1-.79,1.63,3.41,3.41,0,0,1-2.13.61,4,4,0,0,1-1.64-.33,2.75,2.75,0,0,1-1.16-.91,2.27,2.27,0,0,1-.41-1.35h1.43a1.33,1.33,0,0,0,.46,1.08,2,2,0,0,0,1.33.38,1.76,1.76,0,0,0,1.12-.3A1,1,0,0,0,256.2,82.84Z" transform="translate(0.04 0.02)"/><path class="cls-1" d="M265.62,77.89h-2.56V85h-1.42V77.89H259.1V76.74h6.51Z" transform="translate(0.04 0.02)"/><path class="cls-1" d="M113,83.32a.81.81,0,0,1,.62.23.78.78,0,0,1,.22.57.76.76,0,0,1-.22.55,1,1,0,0,1-1.22,0,.74.74,0,0,1-.22-.56.78.78,0,0,1,.22-.57A.81.81,0,0,1,113,83.32Z" transform="translate(0.04 0.02)"/><path class="cls-1" d="M186.12,83.32a.81.81,0,0,1,.62.23.78.78,0,0,1,.22.57.76.76,0,0,1-.22.55,1,1,0,0,1-1.22,0,.74.74,0,0,1-.22-.56.78.78,0,0,1,.22-.57A.81.81,0,0,1,186.12,83.32Z" transform="translate(0.04 0.02)"/></svg>